<?xml version="1.0" encoding="utf-8"?>
<!-- Generator: Adobe Illustrator 26.3.1, SVG Export Plug-In . SVG Version: 6.00 Build 0)  -->
<svg version="1.1" id="Layer_1" xmlns="http://www.w3.org/2000/svg" xmlns:xlink="http://www.w3.org/1999/xlink" x="0px" y="0px"
	 viewBox="0 0 250 150" style="enable-background:new 0 0 250 150;" xml:space="preserve">
<style type="text/css">
	.st0{fill:#1C3E71;}
	.st1{fill:#61A2D7;}
	.st2{fill:#0074B6;}
	.st3{font-family:'EthnocentricRg-Italic';}
	.st4{font-size:21.3151px;}
</style>
<g>
	<g>
		<path class="st0" d="M21.69,53.65L21.69,53.65L21.69,53.65c11.17-11.61,29.27-11.61,40.44,0l0,0l0,0
			C50.96,65.26,32.85,65.26,21.69,53.65z"/>
		<path class="st1" d="M21.69,96.36L21.69,96.36L21.69,96.36c11.17-11.61,29.27-11.61,40.44,0l0,0l0,0
			C50.96,107.97,32.85,107.97,21.69,96.36z"/>
		<path class="st2" d="M21.37,53.97L21.37,53.97L21.37,53.97c11.17,11.61,11.17,30.44,0,42.05l0,0l0,0
			C10.2,84.41,10.2,65.59,21.37,53.97z"/>
	</g>
	<text transform="matrix(1 0 0 1 54.611 82.1304)" class="st2 st3 st4">CYBERTRON</text>
</g>
</svg>
